<svg version="1.1" xmlns="http://www.w3.org/2000/svg" xmlns:xlink="http://www.w3.org/1999/xlink" width="127.67374" height="78.83" viewBox="0,0,127.67374,78.83"><g transform="translate(-176.16313,-140.585)"><g data-paper-data="{&quot;isPaintingLayer&quot;:true}" fill-rule="nonzero" stroke="none" stroke-width="1" stroke-linecap="butt" stroke-linejoin="miter" stroke-miterlimit="10" stroke-dasharray="" stroke-dashoffset="0" style="mix-blend-mode: normal"><path d="M237.52313,190.315c-0.79,0.8 -1.85,1.66 -3.23,2.4c0.2,1.58 0.43,3.39 0.7,5.42c0.4,1.04 0.83,2.26 1.29,3.74c0.19,0.63 0.33,1.27 0.41,1.93c0.59,4.76 -1.34,9.39 -5.17,12.36c-2.73,2.12 -6.02,3.25 -9.52,3.25c-2.67,0 -5.14,-0.67 -7.24,-1.92c-2.96,1.09 -6.16,1.65 -9.57,1.65c-4.94,0 -9.78,-1.19 -14.36,-3.55c-4.17,-2.06 -7.57,-5.44 -10.12,-10.03c-3.02,-5.45 -4.55,-12.01 -4.55,-19.5c0,-2.18 0.12,-4.1 0.38,-5.86c0.17,-1.2 0.39,-2.91 0.68,-5.13c0.12,-0.95 0.37,-1.88 0.73,-2.76c0.39,-1.88 0.98,-4.21 1.79,-7.08c0.11,-0.4 0.25,-0.79 0.4,-1.18c3.41,-8.36 8.3,-14.39 14.54,-17.91c4.76,-2.69 9.87,-4.06 15.18,-4.06c2.09,0 4.12,0.21 6.09,0.64c2.04,-1.3 4.65,-2.14 7.89,-2.14c1.82,0 3.56,0.37 5.19,1.09c4.2,1.79 7.1,5.49 7.79,9.99c0.02,0.14 0.04,0.28 0.06,0.42c0.28,2.42 0.14,5.42 -0.45,9.66c-0.04,1.96 -0.39,4.04 -1.07,6.34c-0.13,0.44 -0.29,0.87 -0.48,1.29c0.66,0.39 1.28,0.85 1.86,1.38c2.97,2.73 4.61,6.39 4.61,10.3c0,3.5 -1.36,6.79 -3.83,9.26z" fill="#00cccc"></path><path d="M229.73813,182.55c-0.587,0.587 -1.495,0.909 -2.727,0.967c0.82,-0.058 -0.176,-0.116 -2.991,-0.176c-0.176,1.643 -0.558,3.87 -1.144,6.686c0.293,2.521 0.762,6.188 1.407,10.995c0.41,0.879 0.909,2.258 1.496,4.134c0.116,0.939 -0.221,1.716 -1.012,2.331c-0.792,0.616 -1.716,0.924 -2.771,0.924c-0.998,0 -1.73,-0.293 -2.199,-0.88c-0.06,-0.585 -0.235,-1.495 -0.528,-2.727c-0.587,-1.642 -0.851,-2.668 -0.791,-3.079c0.058,0 0,-0.116 -0.177,-0.352c-3.284,4.517 -7.652,6.773 -13.105,6.773c-3.226,0 -6.363,-0.792 -9.412,-2.375c-2.17,-1.056 -3.988,-2.903 -5.453,-5.542c-2.111,-3.812 -3.167,-8.532 -3.167,-14.162c0,-1.641 0.088,-3.078 0.264,-4.31c0.176,-1.232 0.41,-2.99 0.704,-5.277c0.116,-0.117 0.233,-0.353 0.352,-0.704c0.293,-1.7 0.908,-4.222 1.848,-7.564c2.463,-6.039 5.717,-10.203 9.763,-12.49c3.108,-1.76 6.362,-2.639 9.764,-2.639c4.104,0 7.799,1.35 11.084,4.046c0.058,-0.058 0.116,-0.321 0.176,-0.792c-0.118,-0.761 -0.118,-1.876 0,-3.342c0.233,-0.938 1.144,-1.408 2.727,-1.408c0.293,0 0.557,0.06 0.792,0.177c0.761,0.294 1.201,0.821 1.319,1.583c0.176,1.525 0,4.076 -0.528,7.652c0.058,1.056 -0.146,2.375 -0.615,3.958c-0.646,0.704 -1.379,1.056 -2.199,1.056c-1.29,0 -2.229,-0.557 -2.814,-1.671c0,-0.41 -0.088,-0.938 -0.264,-1.584c-0.938,-1.641 -2.023,-2.931 -3.255,-3.87c-1.584,-1.231 -3.754,-1.935 -6.51,-2.11c-4.749,-0.41 -8.532,1.378 -11.347,5.365c-1.994,2.933 -3.401,6.421 -4.222,10.468c-0.176,0.527 -0.411,1.35 -0.704,2.463c-0.646,3.577 -0.968,6.803 -0.968,9.675c0,4.047 0.645,7.917 1.936,11.611c0.762,2.17 2.315,3.93 4.662,5.277c2.169,1.291 4.397,1.936 6.685,1.936c1.524,0 3.049,-0.322 4.574,-0.968c1.056,-0.409 2.668,-2.315 4.838,-5.718c0.469,-0.761 0.85,-1.641 1.144,-2.639c0.352,-1.348 0.585,-2.199 0.703,-2.551c0.469,-1.113 0.718,-2.536 0.748,-4.266c0.028,-1.729 0.161,-2.976 0.396,-3.738c-1.466,-0.117 -3.46,0 -5.981,0.352c-3.401,0.527 -5.132,0.791 -5.189,0.791c-1.935,0 -3.313,-0.761 -4.134,-2.286c-0.235,-0.528 -0.294,-1.085 -0.176,-1.672c0.233,-0.703 0.732,-1.319 1.495,-1.847c1.172,-0.88 3.136,-1.201 5.894,-0.968c4.163,0.411 7.505,0.615 10.027,0.615c0.352,0 1.319,-0.028 2.902,-0.088c1.408,-0.058 2.463,-0.058 3.167,0c0.88,-0.058 1.905,0.03 3.079,0.265c0.703,0.646 1.055,1.378 1.055,2.198c-0.003,0.588 -0.209,1.087 -0.618,1.497z" fill="#ffffff"></path><path d="M303.83687,175.01516v4.84c0,2.87 -0.5,6.95 -1.57,12.84c-0.44,2.74 -1.28,5.56 -2.49,8.39c-0.02,0.04 -0.04,0.07 -0.05,0.11c-2.15,4.85 -5.69,9.08 -10.53,12.57c-5.16,3.71 -10.5,5.59 -15.89,5.59c-2.18,0 -4.26,-0.34 -6.21,-1c-6.91,-2.23 -12.37,-6.47 -16.22,-12.6c-0.83,-1.35 -1.65,-3.02 -2.67,-5.46c-0.02,-0.06 -0.04,-0.11 -0.07,-0.17c-1.26,-3.16 -1.93,-5.69 -2.11,-7.97c-0.03,-0.39 -0.14,-1.33 -0.5,-3.17c-0.13,-0.69 -0.2,-1.39 -0.2,-2.09v-4.28c-0.44,-1.69 -0.48,-3.5 -0.05,-5.29c0.16,-0.69 0.39,-1.36 0.67,-1.98c0,-1.22 0.21,-2.44 0.61,-3.6c0.11,-0.5 0.26,-0.99 0.44,-1.48c0.01,-0.01 0.19,-0.52 0.44,-1.93c0.3,-1.73 0.86,-3.96 1.7,-6.77c0.01,-0.03 0.02,-0.07 0.03,-0.1c1.63,-5.24 4.92,-10.21 10.06,-15.19c0.04,-0.04 0.07,-0.07 0.11,-0.1c2.6,-2.46 5.6,-4.02 8.92,-4.66c0.6,-0.11 1.21,-0.17 1.83,-0.19c0.38,-0.01 1.39,-0.07 3.04,-0.16c0.06,0 0.12,-0.01 0.18,-0.01c4.87,-0.2 9.48,0.84 13.75,3.07c4.93,2.52 8.83,6.31 11.6,11.27c1.31,2.35 2.43,5.2 3.43,8.74c1.17,4.01 1.75,7.54 1.75,10.78z" fill="#00cccc"></path><path d="M292.83387,179.85616c0,2.17 -0.471,5.836 -1.408,10.995c-0.293,1.877 -0.879,3.842 -1.76,5.894c-1.35,3.05 -3.65,5.748 -6.904,8.093c-3.255,2.345 -6.407,3.518 -9.456,3.518c-0.997,0 -1.906,-0.146 -2.727,-0.439c-4.457,-1.407 -7.916,-4.075 -10.379,-8.005c-0.471,-0.761 -1.086,-2.052 -1.848,-3.87c-0.821,-2.052 -1.275,-3.635 -1.363,-4.75c-0.088,-1.113 -0.308,-2.579 -0.66,-4.397v-6.51c0.234,-0.116 0.117,-0.292 -0.352,-0.527h0.528c0,-0.293 0.116,-0.85 0.352,-1.671c0.233,-0.821 0.352,-1.437 0.352,-1.848c0,-0.352 -0.088,-0.674 -0.264,-0.968c0.233,0 0.439,-0.088 0.615,-0.264c-0.059,-0.117 -0.206,-0.176 -0.439,-0.176c0.058,-0.058 0.161,-0.146 0.308,-0.264c0.146,-0.117 0.249,-0.205 0.309,-0.264c-0.06,-0.059 -0.132,-0.103 -0.221,-0.133c-0.088,-0.028 -0.162,-0.072 -0.22,-0.132c0.353,-0.938 0.674,-2.228 0.968,-3.87c0.233,-1.348 0.704,-3.195 1.407,-5.541c1.056,-3.4 3.46,-6.919 7.213,-10.556c1.056,-0.996 2.199,-1.612 3.431,-1.847c0.176,0 1.319,-0.059 3.431,-0.177c2.932,-0.116 5.687,0.499 8.268,1.848c2.992,1.525 5.336,3.812 7.037,6.861c0.881,1.583 1.701,3.724 2.463,6.421c0.881,2.99 1.32,5.571 1.32,7.74v4.839zM287.02887,170.09316c-0.35,-0.82 -0.76,-1.876 -1.227,-3.167c-0.586,-2.639 -2.325,-5.071 -5.217,-7.301c-2.893,-2.228 -5.566,-3.224 -8.021,-2.99c-1.11,0.118 -2.981,1.966 -5.612,5.542c-1.286,1.701 -2.571,5.102 -3.856,10.203c-1.169,4.75 -1.725,8.415 -1.665,10.995c0.116,3.284 0.292,5.571 0.526,6.86c0.408,2.405 1.285,4.604 2.629,6.598c1.286,1.759 2.28,2.902 2.981,3.431c2.629,1.877 5.112,2.814 7.451,2.814c0.525,0 1.022,-0.058 1.49,-0.176c1.11,-0.176 2.424,-0.908 3.944,-2.199c1.286,-1.173 2.25,-2.257 2.894,-3.255c0.876,-1.465 1.695,-3.664 2.455,-6.597c1.168,-4.28 1.754,-8.825 1.754,-13.634c0.002,-2.579 -0.174,-4.954 -0.526,-7.124z" fill="#ffffff"></path></g></g></svg>