<svg version="1.1" xmlns="http://www.w3.org/2000/svg" xmlns:xlink="http://www.w3.org/1999/xlink" width="114" height="108" viewBox="0,0,114,108"><defs><linearGradient x1="187" y1="179.5" x2="293" y2="179.5" gradientUnits="userSpaceOnUse" id="color-1"><stop offset="0" stop-color="#545454"></stop><stop offset="1" stop-color="#a2a2a2"></stop></linearGradient><linearGradient x1="242" y1="152.5" x2="268" y2="152.5" gradientUnits="userSpaceOnUse" id="color-2"><stop offset="0" stop-color="#545454"></stop><stop offset="1" stop-color="#a2a2a2"></stop></linearGradient><linearGradient x1="183" y1="187" x2="200" y2="187" gradientUnits="userSpaceOnUse" id="color-3"><stop offset="0" stop-color="#545454"></stop><stop offset="1" stop-color="#a2a2a2"></stop></linearGradient><linearGradient x1="235" y1="225" x2="270" y2="225" gradientUnits="userSpaceOnUse" id="color-4"><stop offset="0" stop-color="#545454"></stop><stop offset="1" stop-color="#a2a2a2"></stop></linearGradient><linearGradient x1="271" y1="184" x2="297" y2="184" gradientUnits="userSpaceOnUse" id="color-5"><stop offset="0" stop-color="#545454"></stop><stop offset="1" stop-color="#a2a2a2"></stop></linearGradient><linearGradient x1="193" y1="151.5" x2="207" y2="151.5" gradientUnits="userSpaceOnUse" id="color-6"><stop offset="0" stop-color="#545454"></stop><stop offset="1" stop-color="#a2a2a2"></stop></linearGradient></defs><g transform="translate(-183,-126)"><g data-paper-data="{&quot;isPaintingLayer&quot;:true}" fill-rule="nonzero" stroke="none" stroke-width="0" stroke-linecap="butt" stroke-linejoin="miter" stroke-miterlimit="10" stroke-dasharray="" stroke-dashoffset="0" style="mix-blend-mode: normal"><path d="M293,179.5c0,29.54723 -23.72891,53.5 -53,53.5c-29.27109,0 -53,-23.95277 -53,-53.5c0,-29.54723 23.72891,-53.5 53,-53.5c29.27109,0 53,23.95277 53,53.5z" fill="url(#color-1)"></path><path d="M268,152.5c0,7.45584 -5.8203,13.5 -13,13.5c-7.1797,0 -13,-6.04416 -13,-13.5c0,-7.45584 5.8203,-13.5 13,-13.5c7.1797,0 13,6.04416 13,13.5z" fill="url(#color-2)"></path><path d="M191.5,175c4.69442,0 8.5,5.37258 8.5,12c0,6.62742 -3.80558,12 -8.5,12c-4.69442,0 -8.5,-5.37258 -8.5,-12c0,-6.62742 3.80558,-12 8.5,-12z" fill="url(#color-3)"></path><path d="M270,225c0,4.97056 -7.83502,9 -17.5,9c-9.66498,0 -17.5,-4.02944 -17.5,-9c0,-4.97056 7.83502,-9 17.5,-9c9.66498,0 17.5,4.02944 17.5,9z" fill="url(#color-4)"></path><path d="M284,171c7.1797,0 13,5.8203 13,13c0,7.1797 -5.8203,13 -13,13c-7.1797,0 -13,-5.8203 -13,-13c0,-7.1797 5.8203,-13 13,-13z" fill="url(#color-5)"></path><path d="M207,151.5c0,4.14214 -3.13401,7.5 -7,7.5c-3.86599,0 -7,-3.35786 -7,-7.5c0,-4.14214 3.13401,-7.5 7,-7.5c3.86599,0 7,3.35786 7,7.5z" fill="url(#color-6)"></path></g></g></svg>